HIERARCHY
ROOT Hips
{
	OFFSET 0.000000 0.000000 0.000000
	CHANNELS 6 Xposition Yposition Zposition Zrotation Yrotation Xrotation 
	JOINT LHipJoint
	{
		OFFSET 0.000000 0.000000 0.000000
		CHANNELS 3 Zrotation Yrotation Xrotation
		JOINT LeftUpLeg
		{
			OFFSET 1.363060 -1.794630 0.839290
			CHANNELS 3 Zrotation Yrotation Xrotation
			JOINT LeftLeg
			{
				OFFSET 2.448110 -6.726130 0.000000
				CHANNELS 3 Zrotation Yrotation Xrotation
				JOINT LeftFoot
				{
					OFFSET 2.562200 -7.039590 0.000000
					CHANNELS 3 Zrotation Yrotation Xrotation
					JOINT LeftToeBase
					{
						OFFSET 0.157640 -0.433110 2.322550
						CHANNELS 3 Zrotation Yrotation Xrotation
						End Site
						{
							OFFSET 0.000000 0.000000 0.000000
						}
					}
				}
			}
		}
	}
	JOINT RHipJoint
	{
		OFFSET 0.000000 0.000000 0.000000
		CHANNELS 3 Zrotation Yrotation Xrotation
		JOINT RightUpLeg
		{
			OFFSET -1.305520 -1.794630 0.839290
			CHANNELS 3 Zrotation Yrotation Xrotation
			JOINT RightLeg
			{
				OFFSET -2.542530 -6.985550 0.000000
				CHANNELS 3 Zrotation Yrotation Xrotation
				JOINT RightFoot
				{
					OFFSET -2.568260 -7.056230 0.000000
					CHANNELS 3 Zrotation Yrotation Xrotation
					JOINT RightToeBase
					{
						OFFSET -0.164730 -0.452590 2.363150
						CHANNELS 3 Zrotation Yrotation Xrotation
						End Site
						{
							OFFSET 0.000000 0.000000 0.000000
						}
					}
				}
			}
		}
	}
	JOINT LowerBack
	{
		OFFSET 0.000000 0.000000 0.000000
		CHANNELS 3 Zrotation Yrotation Xrotation
		JOINT Spine
		{
			OFFSET 0.028270 2.035590 -0.193380
			CHANNELS 3 Zrotation Yrotation Xrotation
			JOINT Spine1
			{
				OFFSET 0.056720 2.048850 -0.042750
				CHANNELS 3 Zrotation Yrotation Xrotation
				JOINT Neck
				{
					OFFSET 0.000000 0.000000 0.000000
					CHANNELS 3 Zrotation Yrotation Xrotation
					JOINT Neck1
					{
						OFFSET -0.054170 1.746240 0.172020
						CHANNELS 3 Zrotation Yrotation Xrotation
						JOINT Head
						{
							OFFSET 0.104070 1.761360 -0.123970
							CHANNELS 3 Zrotation Yrotation Xrotation
							End Site
							{
								OFFSET 0.000000 0.000000 0.000000
							}
						}
					}
				}
				JOINT LeftShoulder
				{
					OFFSET 0.000000 0.000000 0.000000
					CHANNELS 3 Zrotation Yrotation Xrotation
					JOINT LeftArm
					{
						OFFSET 3.362410 1.200890 -0.311210
						CHANNELS 3 Zrotation Yrotation Xrotation
						JOINT LeftForeArm
						{
							OFFSET 4.983000 -0.000000 -0.000000
							CHANNELS 3 Zrotation Yrotation Xrotation
							JOINT LeftHand
							{
								OFFSET 3.483560 -0.000000 -0.000000
								CHANNELS 3 Zrotation Yrotation Xrotation
								JOINT LeftFingerBase
								{
									OFFSET 0.000000 0.000000 0.000000
									CHANNELS 3 Zrotation Yrotation Xrotation
									JOINT LeftHandIndex1
									{
										OFFSET 0.715260 -0.000000 -0.000000
										CHANNELS 3 Zrotation Yrotation Xrotation
										End Site
										{
											OFFSET 0.000000 0.000000 0.000000
										}
									}
								}
								JOINT LThumb
								{
									OFFSET 0.000000 0.000000 0.000000
									CHANNELS 3 Zrotation Yrotation Xrotation
									End Site
									{
										OFFSET 0.000000 0.000000 0.000000
									}
								}
							}
						}
					}
				}
				JOINT RightShoulder
				{
					OFFSET 0.000000 0.000000 0.000000
					CHANNELS 3 Zrotation Yrotation Xrotation
					JOINT RightArm
					{
						OFFSET -3.136600 1.374050 -0.404650
						CHANNELS 3 Zrotation Yrotation Xrotation
						JOINT RightForeArm
						{
							OFFSET -5.241900 -0.000000 -0.000000
							CHANNELS 3 Zrotation Yrotation Xrotation
							JOINT RightHand
							{
								OFFSET -3.444170 -0.000000 -0.000000
								CHANNELS 3 Zrotation Yrotation Xrotation
								JOINT RightFingerBase
								{
									OFFSET 0.000000 0.000000 0.000000
									CHANNELS 3 Zrotation Yrotation Xrotation
									JOINT RightHandIndex1
									{
										OFFSET -0.622530 -0.000000 -0.000000
										CHANNELS 3 Zrotation Yrotation Xrotation
										End Site
										{
											OFFSET 0.000000 0.000000 0.000000
										}
									}
								}
								JOINT RThumb
								{
									OFFSET 0.000000 0.000000 0.000000
									CHANNELS 3 Zrotation Yrotation Xrotation
									End Site
									{
										OFFSET 0.000000 0.000000 0.000000
									}
								}
							}
						}
					}
				}
			}
		}
	}
}
MOTION
Frames: 6
Frame Time: 0.008333
32.876433 16.915220 -32.933985 -2.357980 -45.416412 18.978934 -2.473323 -8.024308 -6.284621 -14.057758 8.184454 -57.629667 10.495817 18.113434 57.311547 -1.571781 6.748750 8.177339 0.185800 -2.776300 -7.656600 4.488110 8.684414 -6.096969 8.198440 7.352186 -52.391082 -11.145022 -19.720967 60.304681 2.452516 -8.352685 0.262620 -0.310300 3.581000 -9.900900 2.605011 -3.054957 45.915229 1.202915 -3.831408 -2.521765 -5.426697 -2.559753 -0.793345 2.715464 2.833734 -9.182870 1.276807 4.246625 -4.620861 -0.879500 1.740500 -5.925000 13.061178 -6.394018 -2.230493 -17.590585 -56.830242 1.805033 55.787522 -45.986409 -41.655258 -1.337575 -5.136561 -46.426147 30.653588 5.366780 5.575600 -7.125000 0.000000 0.000000 7.442600 39.539200 -1.008100 -16.238006 6.877795 4.287883 83.689436 14.822493 44.849664 -111.720473 55.011424 -82.882776 0.521774 0.758492 7.570870 -5.518771 -10.271488 1.145600 7.125000 0.000000 0.000000 18.518800 -40.408400 2.182300 
32.908792 17.026396 -32.886487 -1.627403 -44.365814 15.984611 -3.573023 -8.142406 -5.853540 -13.631132 7.950311 -54.336550 10.065601 17.834529 56.074960 -1.732643 7.188265 8.718974 0.185200 -2.772000 -7.644600 5.037764 8.403661 -5.814991 8.184958 5.274923 -49.497689 -10.848034 -19.234861 59.271619 2.257209 -8.006547 0.933836 -0.286800 3.443900 -9.517200 3.531800 -3.891045 49.631700 1.246489 -4.691641 -2.558561 -5.712012 -2.917615 -1.795070 2.700448 2.752169 -8.721322 1.170998 4.137673 -4.935860 -0.897700 1.692900 -5.973100 13.072895 -6.693940 -2.596687 -18.152036 -57.055467 1.671546 55.534052 -45.726201 -41.408062 -1.317642 -5.068782 -45.722658 30.085442 5.393850 5.477500 -7.125000 0.000000 0.000000 6.860800 39.543500 -0.927700 -16.253536 7.245289 4.343621 83.217142 15.044476 44.310267 -111.959843 54.796776 -83.310050 0.638390 0.592544 7.440645 -8.464898 -9.693817 1.634900 7.125000 0.000000 0.000000 15.711200 -39.965500 2.007000 
32.946813 17.038415 -32.868459 -1.489692 -43.762261 15.478966 -3.819407 -8.271261 -5.805994 -13.443304 7.309218 -53.663278 10.002095 17.802568 55.903244 -1.951164 7.598870 8.651602 0.182700 -2.753200 -7.592400 5.047750 8.273300 -5.764808 8.191470 4.488506 -49.219612 -10.810220 -19.161315 59.078344 2.234022 -7.963970 1.204299 -0.312100 3.591200 -9.929400 4.489681 -4.522094 50.434900 1.227767 -5.396015 -2.569348 -6.469717 -3.098675 -1.895939 3.030591 2.728721 -8.620023 1.117504 4.164110 -5.075485 -0.891300 1.702200 -6.074800 12.985049 -6.603092 -2.204637 -16.581005 -57.100367 0.350392 55.487229 -45.828721 -41.441766 -1.302085 -5.133451 -46.038421 30.448872 5.348362 5.555300 -7.125000 0.000000 0.000000 7.226700 39.569400 -0.973100 -16.327129 7.237212 4.261984 83.396018 15.405400 44.426681 -112.364147 54.568806 -83.612974 0.787239 0.391276 7.352021 -11.365434 -9.218843 2.066300 7.125000 0.000000 0.000000 12.941100 -39.561200 1.769100 
32.958254 17.025009 -32.879900 -1.556761 -43.860678 15.619986 -3.782651 -8.253615 -5.833305 -13.414799 7.272894 -53.805402 9.972520 17.803086 55.773173 -2.028357 7.746274 8.796112 0.176800 -2.708500 -7.468200 5.027317 8.334191 -5.795767 8.189978 4.637137 -49.356447 -10.800183 -19.167706 59.045114 2.290247 -8.065188 1.252757 -0.309900 3.579100 -9.895500 4.241693 -4.387181 50.728128 1.258106 -5.152127 -2.561429 -6.013561 -3.064481 -1.943417 2.825416 2.725058 -8.611102 1.041763 4.139375 -5.113938 -0.969700 1.680300 -6.087100 13.067834 -6.680543 -2.286688 -16.325032 -57.217983 -0.322302 55.298934 -45.766933 -41.365100 -1.316462 -5.155278 -45.984252 30.468308 5.493127 5.664900 -7.125000 0.000000 0.000000 7.270300 39.749100 -0.946700 -16.253022 7.266905 4.297165 82.839576 15.587299 44.109380 -112.560175 54.512874 -83.960286 0.888767 0.260332 7.096902 -14.326663 -8.617010 2.419400 7.125000 0.000000 0.000000 10.167700 -39.065400 1.504900 
32.966113 17.000046 -32.910178 -1.549842 -43.894580 16.046364 -3.607916 -8.262621 -5.923225 -13.500276 7.158608 -54.389628 10.011251 17.847796 55.874472 -2.073971 7.809343 8.831524 0.178800 -2.723400 -7.509600 4.907324 8.398451 -5.865038 8.134806 4.975829 -49.918034 -10.856271 -19.255846 59.214291 2.367670 -8.204879 1.117744 -0.300900 3.526900 -9.749200 4.038284 -4.264465 50.551710 1.258698 -5.034293 -2.554872 -5.882841 -3.028401 -1.862368 2.790744 2.708899 -8.617979 1.061258 4.117947 -5.113781 -0.974300 1.665800 -6.119300 13.111169 -6.667322 -2.232177 -15.794969 -57.380698 -0.986894 55.087985 -45.736303 -41.194459 -1.329601 -5.155364 -46.002949 30.458270 5.422424 5.608800 -7.125000 0.000000 0.000000 7.266900 39.651300 -0.963900 -16.256263 7.240276 4.296826 82.803924 15.745071 44.032531 -112.871172 54.412693 -84.288779 1.014872 0.098420 7.007472 -17.375493 -8.075109 2.731200 7.125000 0.000000 0.000000 7.323900 -38.578600 1.165800 
32.981599 16.997388 -32.918499 -1.498461 -43.744039 15.953169 -3.641595 -8.281199 -5.919799 -13.452206 6.933123 -54.324389 10.025060 17.867620 55.923765 -2.136353 7.917254 8.750296 0.177200 -2.711800 -7.477300 4.885337 8.386323 -5.866035 8.113965 4.878106 -49.936365 -10.877538 -19.259886 59.263823 2.370429 -8.211900 1.074240 -0.299100 3.516500 -9.720300 4.143529 -4.363615 50.986332 1.267256 -5.112976 -2.553363 -5.865470 -3.063100 -1.930693 2.777593 2.686483 -8.564612 1.029347 4.093512 -5.174340 -0.998400 1.649500 -6.159900 13.136807 -6.686186 -2.182800 -15.243835 -57.519971 -1.737835 54.904475 -45.698319 -41.073414 -1.334155 -5.166878 -45.982744 30.464200 5.434422 5.624100 -7.125000 0.000000 0.000000 7.282400 39.673400 -0.962000 -16.250261 7.261348 4.296053 82.620978 15.941637 43.893267 -113.154503 54.286280 -84.637498 1.125135 -0.046260 6.852468 -20.287749 -7.450459 2.924200 7.125000 0.000000 0.000000 4.629100 -37.975600 0.802600 
